<?xml version="1.0" standalone="no"?>
<!DOCTYPE svg PUBLIC "-//W3C//DTD SVG 20010904//EN"
 "http://www.w3.org/TR/2001/REC-SVG-20010904/DTD/svg10.dtd">
<svg version="1.0" xmlns="http://www.w3.org/2000/svg"
 width="576.000000pt" height="576.000000pt" viewBox="0 0 576.000000 576.000000"
 preserveAspectRatio="xMidYMid meet">
<metadata>
Created by potrace 1.14, written by Peter Selinger 2001-2017
</metadata>
<g transform="translate(0.000000,576.000000) scale(0.100000,-0.100000)"
fill="#000000" stroke="none">
<path d="M219 5107 c-84 -32 -148 -88 -191 -170 -19 -35 -23 -58 -23 -137 0
-80 4 -102 23 -140 17 -31 293 -314 890 -912 l867 -868 -867 -867 c-597 -599
-873 -882 -890 -913 -19 -38 -23 -60 -23 -140 0 -80 4 -102 23 -138 33 -63 84
-114 144 -148 48 -26 62 -29 148 -29 85 0 100 3 146 28 70 39 2032 2002 2066
2067 19 38 23 60 23 140 0 85 -3 100 -28 146 -40 71 -2003 2032 -2067 2065
-56 28 -186 37 -241 16z"/>
<path d="M2459 1266 c-83 -30 -147 -86 -191 -169 -19 -35 -23 -58 -23 -137 0
-86 3 -100 29 -148 34 -60 85 -111 148 -144 l43 -23 1535 0 1535 0 43 23 c63
33 114 84 148 144 26 48 29 62 29 148 0 86 -3 100 -29 148 -34 60 -85 111
-148 144 l-43 23 -1520 2 c-1226 2 -1527 0 -1556 -11z"/>
</g>
</svg>
