<?xml version="1.0" standalone="no"?>
<!DOCTYPE svg PUBLIC "-//W3C//DTD SVG 20010904//EN"
 "http://www.w3.org/TR/2001/REC-SVG-20010904/DTD/svg10.dtd">
<svg version="1.0" xmlns="http://www.w3.org/2000/svg"
 width="1024.000000pt" height="1024.000000pt" viewBox="0 0 1024.000000 1024.000000"
 preserveAspectRatio="xMidYMid meet">
<metadata>
Created by potrace 1.11, written by Peter Selinger 2001-2013
</metadata>
<g transform="translate(0.000000,1024.000000) scale(0.100000,-0.100000)"
fill="#000000" stroke="none">
<path d="M5128 9285 c-2 -3 -35 -7 -74 -10 -38 -2 -80 -7 -94 -10 -14 -3 -34
-7 -45 -9 -91 -18 -202 -68 -319 -143 -72 -47 -240 -209 -251 -243 -3 -11 -10
-20 -14 -20 -5 0 -14 -13 -21 -30 -7 -16 -16 -30 -21 -30 -5 0 -9 -8 -9 -17 0
-9 -6 -24 -13 -32 -39 -47 -97 -244 -102 -342 -1 -31 -6 -62 -9 -68 -4 -6 -4
-16 0 -22 4 -6 8 -39 10 -73 4 -73 34 -192 65 -261 12 -27 23 -52 23 -55 2
-12 78 -137 104 -170 59 -77 190 -194 270 -243 47 -29 86 -50 88 -47 1 3 10
-2 20 -11 11 -10 28 -19 39 -21 17 -3 20 -12 22 -68 3 -86 3 -138 2 -205 0
-16 0 -37 0 -45 1 -8 1 -35 0 -60 -1 -25 -1 -51 0 -57 2 -27 2 -79 1 -128 -1
-11 -1 -27 -1 -35 3 -117 1 -171 -4 -180 -3 -5 -2 -10 3 -10 5 0 6 -17 2 -40
-4 -22 -4 -40 0 -40 4 0 4 -18 0 -40 -4 -23 -3 -40 2 -40 5 0 6 -4 3 -10 -7
-12 -10 -169 -3 -176 3 -3 2 -21 -2 -40 -4 -19 -4 -36 0 -39 4 -3 4 -21 0 -40
-4 -19 -4 -37 0 -40 4 -2 5 -16 3 -29 -4 -21 -10 -25 -45 -24 -21 0 -42 -2
-45 -6 -3 -3 -12 -1 -19 5 -8 7 -14 7 -19 -1 -4 -7 -12 -7 -25 0 -13 7 -21 7
-25 0 -4 -7 -13 -7 -24 0 -12 6 -22 5 -28 -1 -8 -8 -13 -7 -17 0 -5 8 -13 8
-27 1 -12 -7 -19 -7 -19 -1 0 7 -8 7 -24 1 -15 -5 -27 -5 -34 2 -6 6 -12 6
-16 -1 -5 -8 -13 -8 -26 -1 -13 7 -21 7 -25 0 -4 -7 -13 -7 -24 0 -12 6 -22 5
-28 -1 -8 -8 -13 -7 -17 0 -5 8 -13 8 -27 1 -12 -7 -19 -7 -19 -1 0 6 -11 6
-30 1 -16 -5 -30 -5 -30 -2 0 9 -64 7 -79 -3 -6 -3 -11 -1 -11 5 0 8 -6 8 -20
0 -14 -8 -20 -8 -20 0 0 8 -6 8 -20 0 -14 -8 -20 -8 -20 0 0 8 -6 8 -20 0 -14
-8 -20 -8 -20 0 0 8 -6 8 -20 0 -14 -8 -20 -8 -20 0 0 8 -6 8 -20 0 -14 -8
-20 -8 -20 0 0 8 -6 8 -20 0 -14 -8 -20 -8 -20 0 0 8 -6 8 -20 0 -14 -8 -20
-8 -20 0 0 8 -6 8 -20 0 -14 -8 -20 -8 -20 0 0 8 -6 8 -20 0 -14 -8 -20 -8
-20 0 0 8 -6 8 -20 0 -14 -8 -20 -8 -20 0 0 8 -6 8 -20 0 -14 -8 -20 -8 -20 0
0 8 -6 8 -20 0 -14 -8 -20 -8 -20 0 0 8 -6 8 -20 0 -14 -8 -20 -8 -20 0 0 8
-6 8 -20 0 -14 -8 -20 -8 -20 0 0 6 -5 8 -11 5 -15 -10 -79 -12 -79 -3 0 4
-11 3 -24 -2 -15 -5 -27 -5 -34 2 -6 6 -12 6 -16 -1 -5 -8 -13 -8 -26 -1 -13
7 -21 7 -25 0 -4 -7 -13 -7 -24 0 -12 6 -22 5 -28 -1 -8 -8 -13 -7 -17 0 -5 8
-13 8 -27 1 -12 -7 -19 -7 -19 -1 0 7 -8 7 -24 1 -15 -5 -27 -5 -34 2 -6 6
-12 6 -16 -1 -5 -8 -13 -8 -26 -1 -13 7 -21 7 -25 0 -4 -7 -13 -7 -24 0 -12 6
-22 5 -28 -1 -8 -8 -13 -7 -17 0 -5 8 -13 8 -27 1 -12 -7 -19 -7 -19 -1 0 6
-11 6 -30 1 -16 -5 -30 -6 -30 -2 0 4 -21 6 -47 5 -157 -8 -230 -13 -248 -17
-11 -2 -48 -7 -83 -11 -34 -4 -64 -11 -67 -16 -3 -4 -12 -6 -20 -3 -14 6 -182
-36 -250 -62 -22 -9 -42 -15 -45 -15 -10 2 -147 -54 -223 -91 -43 -21 -81 -38
-86 -38 -5 0 -14 -6 -20 -14 -7 -8 -24 -17 -39 -21 -15 -4 -35 -15 -45 -26
-10 -10 -24 -19 -31 -19 -7 0 -21 -9 -31 -20 -10 -11 -22 -20 -27 -20 -14 0
-161 -110 -247 -185 -57 -50 -261 -257 -261 -266 0 -3 -10 -17 -21 -30 -41
-45 -129 -168 -129 -178 0 -6 -5 -11 -11 -11 -5 0 -8 -4 -5 -9 3 -5 -1 -11 -9
-15 -8 -3 -15 -12 -15 -20 0 -8 -6 -21 -12 -28 -24 -25 -124 -218 -120 -230 1
-5 -2 -8 -6 -8 -4 0 -14 -21 -21 -47 -8 -27 -17 -52 -21 -58 -16 -23 -73 -202
-85 -267 -2 -10 -6 -22 -9 -27 -3 -4 -8 -23 -10 -42 -3 -19 -9 -56 -15 -84
-11 -56 -21 -153 -25 -237 -2 -31 -6 -61 -10 -67 -4 -6 -3 -11 1 -11 5 0 6
-25 3 -55 -3 -30 -3 -55 1 -55 4 0 4 -13 -1 -30 -5 -17 -5 -30 0 -30 5 0 5
-13 0 -30 -5 -17 -5 -30 0 -30 5 0 5 -13 0 -30 -5 -17 -5 -30 0 -30 5 0 5 -13
0 -30 -5 -17 -5 -30 0 -30 5 0 5 -13 0 -30 -5 -17 -5 -30 0 -30 5 0 5 -13 0
-30 -5 -17 -5 -30 0 -30 5 0 5 -13 0 -30 -5 -17 -5 -30 0 -30 5 0 5 -13 0 -30
-5 -17 -5 -30 0 -30 5 0 5 -13 0 -30 -5 -16 -6 -30 -2 -30 6 0 7 -59 2 -85 -1
-5 -1 -12 0 -15 1 -3 3 -30 5 -60 3 -69 15 -190 20 -210 2 -8 7 -33 10 -55 7
-44 12 -69 15 -72 2 -2 4 -12 5 -23 1 -11 3 -21 4 -22 2 -2 5 -14 8 -28 6 -31
8 -41 16 -60 3 -8 17 -53 32 -100 27 -85 34 -103 74 -192 11 -26 21 -52 21
-57 0 -5 3 -11 8 -13 4 -1 20 -30 36 -63 35 -72 98 -179 109 -183 4 -2 7 -9 7
-16 0 -7 9 -21 20 -31 11 -10 20 -22 20 -26 0 -5 6 -17 14 -26 8 -10 31 -38
51 -63 118 -149 259 -291 400 -402 90 -72 370 -248 393 -248 3 0 33 -13 66
-29 91 -43 128 -59 161 -67 17 -4 35 -10 40 -14 8 -5 81 -28 115 -36 3 0 12
-4 21 -8 9 -4 29 -9 45 -11 16 -2 29 -4 29 -5 0 -2 8 -4 55 -15 39 -9 103 -19
128 -19 12 -1 22 -3 22 -6 0 -6 82 -12 177 -14 35 0 63 -3 63 -6 0 -3 20 -5
45 -5 25 0 45 3 45 7 0 4 14 3 30 -2 18 -5 30 -5 30 0 0 6 10 6 23 1 13 -5 30
-6 37 -1 7 5 24 4 36 0 14 -6 26 -5 29 0 3 6 15 6 30 0 14 -5 25 -6 25 -2 0 8
89 7 97 -2 3 -3 14 -1 24 4 11 7 20 7 24 0 3 -5 15 -6 28 -1 12 5 34 5 49 0
16 -4 28 -4 28 1 0 5 13 5 30 0 17 -5 30 -5 30 0 0 5 13 5 30 0 18 -5 30 -5
30 0 0 6 10 6 25 0 15 -6 27 -6 30 0 3 6 15 6 29 0 13 -5 27 -6 30 -3 8 8 76
9 76 1 0 -4 14 -3 30 2 17 5 30 5 30 1 0 -4 27 -4 60 -1 33 3 60 3 60 -1 0 -4
14 -4 30 1 17 5 30 6 30 2 0 -8 68 -7 76 1 3 3 17 2 30 -3 14 -6 24 -6 24 0 0
5 12 5 30 0 17 -5 30 -5 30 0 0 5 13 5 30 0 17 -5 30 -5 30 0 0 5 13 5 30 0
17 -5 30 -5 30 0 0 5 12 5 28 1 15 -5 37 -5 49 0 13 5 25 4 28 -1 4 -6 13 -7
24 -1 9 5 23 6 29 2 7 -4 35 -4 62 -1 28 4 50 3 50 -1 0 -4 14 -4 30 1 17 5
30 6 30 2 0 -8 68 -7 76 1 3 3 17 2 30 -3 14 -6 24 -6 24 0 0 5 12 5 30 0 17
-5 30 -5 30 0 0 5 13 5 30 0 17 -5 30 -5 30 0 0 5 13 5 30 0 17 -5 30 -5 30 0
0 5 12 5 28 1 15 -5 37 -5 49 0 13 5 25 4 28 -1 4 -6 13 -7 24 -1 9 5 23 6 30
2 7 -5 30 -5 51 -1 21 4 44 4 51 -1 7 -4 21 -3 30 2 11 6 20 5 24 -1 3 -5 15
-6 28 -1 12 5 34 5 49 0 16 -4 28 -4 28 1 0 5 13 5 30 0 17 -5 30 -5 30 0 0 5
13 5 30 0 18 -5 30 -5 30 0 0 6 10 6 25 0 15 -6 27 -6 30 0 3 6 15 6 29 0 13
-5 27 -6 30 -3 8 8 76 9 76 1 0 -4 14 -3 30 2 17 5 30 6 30 2 0 -4 23 -7 50
-7 28 0 50 3 50 7 0 4 14 3 30 -2 18 -5 30 -5 30 0 0 6 10 6 23 1 13 -5 30 -6
37 -1 7 5 24 4 36 0 14 -6 26 -5 29 0 3 6 15 6 30 0 14 -5 25 -6 25 -2 0 4 21
6 47 4 27 -1 54 -3 61 -2 6 0 19 0 27 0 8 0 22 0 30 0 8 0 22 0 30 0 8 0 22 0
30 0 8 0 22 0 30 0 8 0 22 0 30 0 8 0 22 0 30 0 8 0 22 0 30 0 8 0 22 0 30 0
8 0 22 0 30 0 8 0 22 0 30 0 8 0 22 0 30 0 8 0 22 0 30 0 8 0 22 0 30 0 8 0
22 0 30 0 8 0 22 0 30 0 8 0 21 0 28 0 6 1 33 -1 60 -2 26 -2 47 0 47 4 0 4
14 3 30 -2 18 -5 30 -5 30 0 0 6 10 6 23 1 13 -5 30 -6 37 -1 7 5 24 4 36 0
14 -6 26 -5 29 0 3 6 15 6 30 0 14 -5 25 -6 25 -2 0 8 89 7 97 -2 3 -3 14 -1
24 4 11 7 20 7 24 0 3 -5 15 -6 28 -1 12 5 34 5 49 0 16 -4 28 -4 28 1 0 5 13
5 30 0 17 -5 30 -5 30 0 0 5 13 5 30 0 17 -5 32 -5 35 0 3 6 16 5 29 0 13 -5
26 -6 29 -3 4 3 34 7 69 9 35 2 81 6 103 9 22 3 60 8 85 11 57 7 85 12 85 14
0 2 32 9 65 15 14 2 25 4 25 5 0 1 9 3 20 5 16 3 82 22 143 41 7 2 14 4 17 4
3 1 22 8 42 17 79 33 88 36 103 39 8 2 44 18 80 35 36 18 71 34 79 35 8 2 17
6 20 11 3 4 28 19 56 33 55 28 264 164 280 183 6 7 26 23 45 37 66 46 252 227
315 305 17 21 42 52 57 69 15 17 28 34 28 38 0 4 6 13 13 20 31 31 142 212
190 308 29 58 56 108 60 111 5 3 8 8 7 10 -1 4 -3 0 44 129 38 106 62 183 70
220 3 14 8 36 11 50 4 14 8 34 10 45 2 11 7 31 10 45 3 14 8 43 10 65 3 22 7
56 10 75 3 19 7 76 10 125 3 50 6 107 8 128 1 20 -1 37 -5 37 -4 0 -3 13 2 30
5 17 5 30 0 30 -5 0 -5 13 0 30 5 17 5 30 0 30 -5 0 -5 13 0 30 5 17 5 30 0
30 -5 0 -5 13 0 30 5 17 5 30 0 30 -5 0 -5 13 0 30 5 17 5 30 0 30 -5 0 -5 13
0 30 5 17 5 30 0 30 -5 0 -5 13 0 30 5 17 5 30 0 30 -5 0 -5 13 0 30 5 17 5
30 0 30 -5 0 -5 13 0 30 5 17 5 30 1 30 -4 0 -4 25 -1 55 3 30 4 55 1 55 -4 0
-7 33 -8 73 -1 39 -4 90 -6 112 -10 78 -18 133 -23 156 -7 32 -14 69 -19 99
-2 13 -12 49 -21 80 -15 49 -30 94 -80 240 -9 25 -20 49 -25 55 -5 5 -9 17 -9
27 0 10 -4 18 -9 18 -5 0 -12 12 -15 26 -4 14 -18 43 -31 65 -14 21 -25 45
-25 54 0 8 -4 15 -10 15 -5 0 -10 4 -10 10 0 8 -86 150 -112 185 -117 157
-264 320 -379 420 -53 46 -166 135 -172 135 -3 0 -18 11 -33 25 -15 14 -32 25
-39 25 -7 0 -18 7 -25 15 -7 8 -24 21 -39 28 -47 24 -76 42 -83 52 -4 6 -8 7
-8 2 0 -4 -17 3 -37 16 -21 13 -54 29 -73 37 -19 7 -42 18 -50 25 -20 15 -247
99 -300 110 -3 1 -25 7 -50 14 -25 7 -56 15 -70 17 -14 2 -36 7 -50 10 -41 10
-60 13 -104 18 -22 3 -54 8 -71 12 -16 3 -68 7 -115 9 -47 1 -89 4 -95 5 -5 1
-12 1 -15 0 -15 -6 -60 -5 -60 2 0 4 -11 3 -25 -2 -16 -6 -25 -6 -25 0 0 6 -9
6 -25 0 -16 -6 -25 -6 -25 1 0 6 -7 6 -20 -1 -13 -7 -20 -7 -20 -1 0 7 -9 7
-26 1 -15 -6 -23 -6 -19 -1 3 6 -6 6 -25 1 -16 -5 -30 -5 -30 -2 0 9 -64 7
-79 -3 -6 -3 -11 -1 -11 5 0 8 -6 8 -20 0 -14 -8 -20 -8 -20 0 0 8 -6 8 -20 0
-14 -8 -20 -8 -20 0 0 8 -6 8 -20 0 -14 -8 -20 -8 -20 0 0 8 -6 8 -20 0 -14
-8 -20 -8 -20 0 0 8 -6 8 -20 0 -14 -8 -20 -8 -20 0 0 8 -6 8 -20 0 -14 -8
-20 -8 -20 0 0 6 -5 8 -11 5 -15 -10 -79 -12 -79 -3 0 4 -11 3 -24 -2 -15 -5
-27 -5 -34 2 -6 6 -12 6 -16 -1 -5 -8 -13 -8 -26 -1 -13 7 -21 7 -25 0 -4 -7
-13 -7 -24 0 -12 6 -22 5 -28 -1 -8 -8 -13 -7 -17 0 -5 8 -13 8 -27 1 -12 -7
-19 -7 -19 -1 0 7 -8 7 -24 1 -15 -5 -27 -5 -34 2 -6 6 -12 6 -16 -1 -5 -8
-13 -8 -26 -1 -13 7 -21 7 -25 0 -4 -7 -13 -7 -24 0 -12 6 -22 5 -28 -1 -8 -8
-13 -7 -17 0 -5 8 -13 8 -27 1 -12 -7 -19 -7 -19 -1 0 6 -11 6 -30 1 -16 -5
-30 -5 -30 -2 0 9 -64 7 -79 -3 -6 -3 -11 -1 -11 5 0 8 -6 8 -20 0 -14 -8 -20
-8 -20 0 0 8 -6 8 -20 0 -14 -8 -20 -8 -20 0 0 8 -6 8 -20 0 -14 -8 -20 -8
-20 0 0 8 -6 8 -20 0 -14 -8 -20 -8 -20 0 0 8 -6 8 -20 0 -14 -8 -20 -8 -20 0
0 8 -6 8 -20 0 -14 -8 -20 -8 -20 0 0 7 -6 8 -17 2 -20 -9 -54 -8 -71 2 -6 3
-13 2 -17 -3 -4 -7 -15 -7 -30 -1 -16 6 -25 6 -25 0 0 -6 -9 -6 -23 -1 -13 5
-30 5 -39 0 -11 -6 -19 -5 -23 1 -4 7 -13 7 -26 0 -13 -8 -19 -7 -19 0 0 8 -6
8 -20 0 -12 -6 -20 -7 -20 -1 0 5 -9 7 -20 4 -17 -5 -18 -2 -11 25 5 16 5 35
1 42 -4 7 -4 25 0 40 4 15 4 33 0 39 -4 7 -4 30 0 52 4 22 3 39 -2 39 -5 0 -6
4 -3 10 5 9 7 71 4 228 -1 35 1 66 4 69 3 3 2 15 -2 27 -5 11 -5 30 -1 40 3
11 3 39 0 63 -4 24 -3 43 2 43 5 0 6 4 3 10 -3 5 -5 33 -5 62 0 29 1 62 0 73
-1 121 0 157 5 165 3 6 2 10 -3 10 -5 0 -6 17 -2 40 4 22 4 40 0 40 -4 0 -4
18 0 40 4 23 3 40 -2 40 -5 0 -6 5 -3 10 4 6 6 38 6 71 0 48 3 61 17 65 30 10
116 56 171 93 30 20 61 41 70 46 31 20 190 186 196 205 4 11 10 20 14 20 5 0
14 14 21 30 7 17 16 30 20 30 4 0 11 12 15 27 3 15 10 30 14 33 27 18 88 229
95 327 2 34 7 67 11 72 3 6 3 16 -1 22 -4 6 -8 39 -10 73 -4 73 -34 192 -65
261 -12 28 -23 52 -24 55 -3 14 -43 82 -78 134 -45 66 -187 216 -205 216 -7 0
-12 5 -12 10 0 6 -4 10 -10 10 -5 0 -18 8 -28 18 -35 33 -249 138 -260 127 -3
-3 -10 -1 -16 4 -16 13 -96 29 -182 35 -23 2 -46 6 -52 9 -5 4 -11 4 -14 2z"/>
</g>
</svg>
